<svg width="12" height="12" viewBox="0 0 12 12" fill="none" xmlns="http://www.w3.org/2000/svg">
<path d="M5.95466 3.16394L8.8345 6.04378L4.88474 9.99851C4.69975 10.1835 4.46475 10.3035 4.20976 10.3485L1.83991 10.7435C1.80991 10.7485 1.78492 10.7485 1.75492 10.7485C1.62493 10.7485 1.49492 10.6934 1.39993 10.5984C1.28493 10.4835 1.22995 10.3185 1.25495 10.1585L1.64991 7.78867C1.69491 7.53369 1.81491 7.29865 1.9999 7.11366L5.95466 3.16394ZM10.1494 1.84895C9.76445 1.45897 9.25447 1.24901 8.70951 1.24901C8.16454 1.24901 7.65456 1.45897 7.26959 1.84895L6.66464 2.4539L9.54448 5.33374L10.1494 4.72879C10.5394 4.34381 10.7494 3.8339 10.7494 3.28893C10.7494 2.74396 10.5394 2.23393 10.1494 1.84895Z" fill="black"/>
</svg>
