<svg width="17" height="9" viewBox="0 0 17 9" fill="none" xmlns="http://www.w3.org/2000/svg">
<path d="M8.47238 2.57941C9.16795 3.22126 9.79762 3.80637 10.432 4.38707C11.9177 5.747 13.4081 7.10266 14.8906 8.46553C15.1701 8.7224 15.4797 8.89705 15.8843 8.87738C16.3468 8.85491 16.6978 8.65618 16.8877 8.264C17.0813 7.86415 17.0235 7.48277 16.7233 7.13934C16.6477 7.05298 16.5571 6.97743 16.4713 6.89887C14.1261 4.75344 11.7809 2.60815 9.43533 0.463057C8.76228 -0.152523 8.23394 -0.154257 7.56527 0.457321C5.19398 2.62595 2.82473 4.79652 0.449876 6.96189C0.138904 7.24544 -0.0539043 7.55853 0.0133781 7.96958C0.147943 8.79122 1.16381 9.16167 1.87986 8.64965C1.99409 8.56796 2.0944 8.46939 2.19747 8.37523C4.19225 6.5537 6.18696 4.7321 8.17963 2.90864C8.27367 2.82261 8.34889 2.71938 8.47238 2.57941Z" fill="white"/>
</svg>
