<svg width="215" height="35" viewBox="0 0 215 35" fill="none" xmlns="http://www.w3.org/2000/svg">
<g clip-path="url(#clip0_56_227)">
<path d="M7.12508e-06 16.9796C0.00850718 7.6006 7.62914 -0.00577406 17.0112 3.28892e-06C26.405 0.00584704 34.0188 7.64058 33.9999 17.0355C33.9811 26.4134 26.3472 34.0187 16.9718 33.9999C7.58936 33.9812 -0.00849293 26.3616 7.12508e-06 16.9796ZM31.9531 17.0027C31.9563 8.74146 25.2955 2.07055 17.0198 2.04678C8.75898 2.023 2.05098 8.72047 2.04666 16.9963C2.04234 25.2545 8.70632 31.9289 16.9799 31.9531C25.24 31.9772 31.9498 25.2777 31.9531 17.0027Z" fill="white"/>
<path d="M20.7082 9.5757C20.7082 10.3837 20.7082 11.211 20.7082 12.0945C20.5167 12.0945 20.3234 12.089 20.1304 12.0956C19.689 12.1106 19.2463 12.1151 18.8069 12.1554C18.5156 12.1821 18.2915 12.3659 18.2769 12.6637C18.2492 13.2342 18.2688 13.807 18.2688 14.4097C19.076 14.4097 19.879 14.4097 20.737 14.4097C20.639 15.2849 20.545 16.124 20.4479 16.991C19.7226 16.991 19.0075 16.991 18.2506 16.991C18.2506 19.4903 18.2506 21.9607 18.2506 24.4593C17.1326 24.4593 16.0562 24.4593 14.9379 24.4593C14.9379 21.9909 14.9379 19.5202 14.9379 17.0068C14.364 17.0068 13.83 17.0068 13.2832 17.0068C13.2832 16.1285 13.2832 15.2934 13.2832 14.4242C13.8261 14.4242 14.3526 14.4242 14.922 14.4242C14.922 13.9741 14.9086 13.5564 14.9256 13.14C14.9444 12.6771 14.9425 12.2053 15.0348 11.7549C15.2945 10.4875 16.1342 9.73315 17.5897 9.59449C18.6072 9.49747 19.6412 9.5757 20.7082 9.5757Z" fill="white"/>
</g>
<g clip-path="url(#clip1_56_227)">
<path d="M44 17.4784C44.0082 7.82469 52.0785 -0.00628528 62.0125 3.78541e-06C71.9589 0.00629285 80.0202 7.86584 79.9999 17.5372C79.9797 27.1909 71.8964 35.0197 61.9695 35C52.035 34.9802 43.9918 27.1376 44 17.4784ZM77.8327 17.5098C77.8448 9.01079 70.7948 2.13993 62.0281 2.10698C53.2862 2.0741 46.1799 8.96575 46.167 17.4891C46.1542 25.9858 53.2066 32.8595 61.9714 32.8929C70.7128 32.9263 77.8206 26.0328 77.8327 17.5098Z" fill="white"/>
<path d="M56.9876 18.8647C55.5072 18.2525 54.7075 17.1713 54.5573 15.5665C54.9836 15.6836 55.375 15.7912 55.7664 15.8988C55.8019 15.8769 55.8374 15.8549 55.8728 15.833C54.583 14.5437 54.3229 13.0913 55.0526 11.409C56.8436 13.4349 58.9921 14.7416 61.772 14.9451C61.772 14.7005 61.7746 14.4554 61.7716 14.2103C61.7524 12.5967 62.8968 11.1746 64.4508 10.9005C65.4405 10.7259 66.3374 10.9469 67.1117 11.5739C67.4021 11.8091 67.6695 11.877 68.0314 11.7114C68.5013 11.4964 68.9984 11.3379 69.4839 11.1551C69.5138 11.1761 69.5437 11.1972 69.5736 11.2183C69.2133 11.7407 68.853 12.2632 68.4928 12.7856C68.5077 12.8131 68.5226 12.8408 68.5376 12.8683C68.9733 12.7394 69.4089 12.6105 69.9531 12.4495C69.8343 12.6378 69.7812 12.7553 69.6982 12.8473C69.3895 13.1897 69.0754 13.5277 68.7545 13.8592C68.5103 14.1116 68.4057 14.3951 68.3841 14.7481C68.1996 17.7639 67.0334 20.3373 64.6162 22.287C62.722 23.8148 60.4829 24.2921 58.0702 24.1013C56.8261 24.0029 55.6791 23.5851 54.581 23.0284C54.4283 22.951 54.2826 22.8605 54.1399 22.6862C54.395 22.6657 54.6498 22.6331 54.9052 22.627C56.2783 22.5941 57.5171 22.185 58.6531 21.3869C58.2194 21.2024 57.7962 21.0537 57.4042 20.8486C56.7636 20.5132 56.2339 20.053 55.9291 19.3906C55.7565 19.0153 55.8 18.9515 56.2107 18.943C56.455 18.938 56.6996 18.9421 56.944 18.9421C56.9587 18.9163 56.9731 18.8906 56.9876 18.8647Z" fill="white"/>
</g>
<g clip-path="url(#clip2_56_227)">
<path d="M90 17.4823C90.0045 7.8301 97.8506 -0.00430487 107.508 1.7747e-06C117.179 0.00430842 125.018 7.8621 125 17.5334C124.982 27.1872 117.126 35.0171 107.474 35C97.8158 34.9828 89.9955 27.1431 90 17.4823ZM107.51 2.10698C99.0113 2.09515 92.1351 8.95469 92.1068 17.4726C92.0786 25.9746 98.9681 32.8808 107.49 32.8929C115.988 32.9051 122.865 26.0439 122.893 17.5265C122.921 9.0212 116.034 2.11887 107.51 2.10698Z" fill="white"/>
<path d="M99.7946 17.4873C99.7946 15.4483 99.7941 13.4093 99.7947 11.3702C99.7951 10.1374 100.487 9.4464 101.72 9.4464C105.604 9.44633 109.489 9.44613 113.373 9.44654C114.466 9.44667 115.202 10.165 115.203 11.2575C115.208 15.4153 115.208 19.5731 115.204 23.7309C115.203 24.8371 114.464 25.5542 113.348 25.5542C109.452 25.5546 105.556 25.5545 101.66 25.5542C100.506 25.5542 99.7957 24.8392 99.7949 23.6728C99.7935 21.611 99.7946 19.5492 99.7946 17.4873ZM112.097 15.9987C112.596 18.3003 112.088 20.2503 110.165 21.6352C108.579 22.7766 106.821 22.8621 105.155 21.8397C102.969 20.4987 102.385 18.4482 102.895 16.0032C102.43 16.0032 101.969 16.0032 101.487 16.0032C101.481 16.1322 101.472 16.2432 101.472 16.3541C101.471 18.552 101.471 20.7499 101.472 22.9477C101.472 23.6128 101.66 23.8015 102.321 23.8016C105.772 23.8021 109.222 23.8021 112.673 23.8016C113.337 23.8016 113.526 23.614 113.527 22.9519C113.528 20.754 113.527 18.5562 113.527 16.3583C113.527 16.239 113.527 16.1198 113.527 15.9988C113.017 15.9987 112.564 15.9987 112.097 15.9987ZM110.621 17.5247C110.634 15.7331 109.234 14.2501 107.516 14.2345C105.809 14.219 104.379 15.7011 104.377 17.4901C104.374 19.2703 105.757 20.7368 107.464 20.7639C109.168 20.7908 110.608 19.3125 110.621 17.5247ZM110.838 12.1582C110.838 12.4086 110.831 12.6594 110.84 12.9096C110.855 13.3315 111.073 13.5692 111.495 13.5846C111.961 13.6016 112.429 13.5994 112.895 13.5804C113.29 13.5642 113.515 13.3194 113.523 12.9159C113.533 12.4151 113.533 11.9138 113.522 11.413C113.513 11.0254 113.299 10.7811 112.918 10.7623C112.43 10.7382 111.938 10.7386 111.45 10.7613C111.067 10.7791 110.856 11.0207 110.839 11.4067C110.829 11.6568 110.837 11.9077 110.838 12.1582Z" fill="white"/>
</g>
<g clip-path="url(#clip3_56_227)">
<path d="M135 16.9783C135.008 7.60086 142.855 -0.00650364 152.513 4.17228e-06C162.183 0.00651199 170.02 7.64197 170 17.0369C169.98 26.4148 162.121 34.0196 152.47 33.9999C142.811 33.9803 134.992 26.3621 135 16.9783ZM152.513 2.04678C144.017 2.03144 137.142 8.69086 137.107 16.9701C137.072 25.224 143.963 31.9373 152.486 31.9531C160.982 31.9689 167.858 25.308 167.893 17.029C167.928 8.77207 161.039 2.06218 152.513 2.04678Z" fill="white"/>
<path d="M151.391 19.696C150.907 21.9323 150.439 24.1166 148.843 25.8404C148.801 25.8384 148.759 25.8364 148.717 25.8344C148.679 25.514 148.644 25.1933 148.604 24.8733C148.404 23.2943 148.728 21.77 149.099 20.2476C149.396 19.0328 149.67 17.8128 149.941 16.5922C149.975 16.4406 149.953 16.2633 149.908 16.1116C149.632 15.1832 149.56 14.2533 149.975 13.3538C150.129 13.0213 150.371 12.7017 150.647 12.4544C151.069 12.0765 151.597 11.9819 152.141 12.2138C152.673 12.4403 152.919 12.8997 152.894 13.4168C152.864 14.0391 152.733 14.6614 152.596 15.273C152.453 15.9088 152.241 16.5298 152.075 17.1612C151.911 17.787 152.026 18.357 152.541 18.7948C153.063 19.2382 153.67 19.2826 154.304 19.0595C154.91 18.8462 155.349 18.4261 155.669 17.9037C156.627 16.3398 156.937 14.631 156.628 12.8576C156.325 11.1205 155.007 10.0586 153.121 9.91286C149.267 9.61503 147.352 12.8588 147.864 15.528C147.941 15.9265 148.158 16.3154 148.381 16.6661C148.55 16.9335 148.636 17.1667 148.534 17.4678C148.467 17.6665 148.437 17.877 148.378 18.0789C148.284 18.4058 148.108 18.4856 147.79 18.3421C147.165 18.0605 146.709 17.6024 146.416 17.0074C145.677 15.509 145.648 13.9604 146.252 12.4317C147.23 9.95443 149.143 8.58786 151.829 8.23265C153.573 8.00189 155.221 8.27568 156.665 9.30365C158.252 10.4327 159.092 11.9701 159.138 13.8886C159.174 15.3933 158.9 16.843 158.166 18.1821C157.382 19.611 156.242 20.6155 154.539 20.8796C153.302 21.0712 152.236 20.7764 151.391 19.696Z" fill="white"/>
</g>
<g clip-path="url(#clip4_56_227)">
<path d="M181 17.4748C181.01 7.82052 188.633 -0.00819668 198.015 6.44069e-06C207.409 0.00820957 215.021 7.86919 215 17.5408C214.979 27.1944 207.343 35.022 197.968 34.9999C188.585 34.9779 180.99 27.1335 181 17.4748ZM212.953 17.5073C212.962 9.00628 206.303 2.13692 198.024 2.10698C189.766 2.07711 183.056 8.96951 183.047 17.4917C183.037 25.9897 189.699 32.8626 197.976 32.8929C206.233 32.9232 212.945 26.0285 212.953 17.5073Z" fill="white"/>
<path d="M198.014 11.4775C199.993 11.5712 201.96 11.6543 203.925 11.7609C205.109 11.8251 205.82 12.4832 206.043 13.6791C206.386 15.5174 206.317 17.3756 206.259 19.2296C206.237 19.9431 206.143 20.6583 206.029 21.3637C205.848 22.4817 205.086 23.1831 203.977 23.233C201.956 23.3241 199.933 23.4199 197.911 23.4369C196.209 23.4512 194.506 23.3596 192.803 23.3072C192.483 23.2974 192.163 23.264 191.845 23.2211C190.731 23.0704 190.093 22.3435 189.897 21.0192C189.64 19.2759 189.676 17.5216 189.74 15.7695C189.766 15.0559 189.857 14.3406 189.973 13.6356C190.159 12.5096 190.91 11.8261 192.024 11.7651C194.023 11.6554 196.022 11.5717 198.014 11.4775ZM201.099 17.0778C199.553 16.1594 198.06 15.2725 196.528 14.363C196.528 16.1953 196.528 17.9631 196.528 19.7929C198.063 18.8811 199.557 17.9938 201.099 17.0778Z" fill="white"/>
</g>
<defs>
<clipPath id="clip0_56_227">
<rect width="34" height="34" fill="white"/>
</clipPath>
<clipPath id="clip1_56_227">
<rect width="36" height="35" fill="white" transform="translate(44)"/>
</clipPath>
<clipPath id="clip2_56_227">
<rect width="35" height="35" fill="white" transform="translate(90)"/>
</clipPath>
<clipPath id="clip3_56_227">
<rect width="35" height="34" fill="white" transform="translate(135)"/>
</clipPath>
<clipPath id="clip4_56_227">
<rect width="34" height="35" fill="white" transform="translate(181)"/>
</clipPath>
</defs>
</svg>
