<svg width="42" height="44" viewBox="0 0 42 44" fill="none" xmlns="http://www.w3.org/2000/svg">
<g filter="url(#filter0_d_0_20)">
<path d="M21.0181 8C18.7781 9.111 17 10 12 11C12 12.137 12 15.7019 12 16.8889C12 23.5559 17.667 26.889 21 28C24.333 26.889 30 23.5559 30 16.8889C30 15.6639 30 12.194 30 11C25 10 23.2221 9.111 21.0181 8ZM21.0061 13.5C22.1921 13.5 23.156 14.4639 23.156 15.6499C23.156 16.8359 22.1911 17.8 21.0061 17.8C19.8211 17.8 18.8569 16.8359 18.8569 15.6499C18.8569 14.4639 19.8201 13.5 21.0061 13.5ZM24.5 22C24.5 22.276 24.276 22.5 24 22.5H18C17.724 22.5 17.5 22.276 17.5 22V21.697C17.5 20.357 18.4809 19 20.3579 19H21.6411C23.5181 19 24.499 20.356 24.499 21.697V22H24.5Z" fill="white"/>
</g>
<defs>
<filter id="filter0_d_0_20" x="0" y="0" width="42" height="44" filterUnits="userSpaceOnUse" color-interpolation-filters="sRGB">
<feFlood flood-opacity="0" result="BackgroundImageFix"/>
<feColorMatrix in="SourceAlpha" type="matrix" values="0 0 0 0 0 0 0 0 0 0 0 0 0 0 0 0 0 0 127 0" result="hardAlpha"/>
<feOffset dy="4"/>
<feGaussianBlur stdDeviation="6"/>
<feComposite in2="hardAlpha" operator="out"/>
<feColorMatrix type="matrix" values="0 0 0 0 0 0 0 0 0 0 0 0 0 0 0 0 0 0 0.2 0"/>
<feBlend mode="normal" in2="BackgroundImageFix" result="effect1_dropShadow_0_20"/>
<feBlend mode="normal" in="SourceGraphic" in2="effect1_dropShadow_0_20" result="shape"/>
</filter>
</defs>
</svg>
