<svg width="20" height="14" viewBox="0 0 20 14" fill="none" xmlns="http://www.w3.org/2000/svg">
<path d="M19.58 2.19C19.35 1.33 18.67 0.649998 17.81 0.419998C16.25 -1.81794e-06 10 0 10 0C10 0 3.75 -1.81794e-06 2.19 0.419998C1.33 0.649998 0.650013 1.33 0.420013 2.19C1.34408e-05 3.75 0 7.00999 0 7.00999C0 7.00999 1.34408e-05 10.27 0.420013 11.83C0.650013 12.69 1.33 13.34 2.19 13.57C3.75 13.99 10 13.99 10 13.99C10 13.99 16.25 13.99 17.81 13.57C18.67 13.34 19.35 12.69 19.58 11.83C20 10.27 20 7.00999 20 7.00999C20 7.00999 20 3.75 19.58 2.19ZM8 10V4L13 7L8 10Z" fill="#F9F9F9"/>
</svg>
