<svg width="24" height="25" viewBox="0 0 24 25" fill="none" xmlns="http://www.w3.org/2000/svg">
<path d="M21.75 11.0557V17.0858C21.75 19.516 20.418 20.8547 18 20.8547H6C3.582 20.8547 2.25 19.516 2.25 17.0858V7.03559C2.25 4.60544 3.582 3.26674 6 3.26674H13C13.414 3.26674 13.75 3.60443 13.75 4.02051C13.75 4.43659 13.414 4.77428 13 4.77428H6C4.423 4.77428 3.75 5.45066 3.75 7.03559V16.3321L6.29004 13.7793C6.68004 13.3873 7.31996 13.3873 7.70996 13.7793L8.65002 14.7239C8.84002 14.9149 9.15998 14.9149 9.34998 14.7239L14.29 9.75917C14.68 9.36721 15.32 9.36721 15.71 9.75917L20.25 14.322V11.0557C20.25 10.6396 20.586 10.3019 21 10.3019C21.414 10.3019 21.75 10.6396 21.75 11.0557ZM7.99304 7.78936C7.30404 7.78936 6.75 8.35217 6.75 9.04564C6.75 9.73911 7.31395 10.3019 8.00195 10.3019C8.69095 10.3019 9.25 9.73911 9.25 9.04564C9.25 8.35217 8.69195 7.78936 8.00195 7.78936H7.99304ZM17 5.77931H18.25V7.03559C18.25 7.45167 18.586 7.78936 19 7.78936C19.414 7.78936 19.75 7.45167 19.75 7.03559V5.77931H21C21.414 5.77931 21.75 5.44162 21.75 5.02554C21.75 4.60946 21.414 4.27177 21 4.27177H19.75V3.01549C19.75 2.59941 19.414 2.26172 19 2.26172C18.586 2.26172 18.25 2.59941 18.25 3.01549V4.27177H17C16.586 4.27177 16.25 4.60946 16.25 5.02554C16.25 5.44162 16.586 5.77931 17 5.77931Z" fill="#1D4C93"/>
</svg>
