<svg width="18" height="23" viewBox="0 0 18 23" fill="none" xmlns="http://www.w3.org/2000/svg">
<path d="M18 0.91133C18.001 0.431193 17.6292 0.0399574 17.1717 0.0389585L0.864522 1.91667e-06C0.406704 -0.000996982 0.0336556 0.388573 0.0327031 0.868378L1.82758e-06 15.9511C-0.000950637 16.4306 0.370511 16.8221 0.828329 16.8231L8.49059 16.8411L8.48011 21.8253C8.47916 22.3041 8.84999 22.6946 9.30653 22.6956C9.47607 22.696 9.64053 22.642 9.78055 22.5398L17.5936 16.8421C17.8232 16.6753 17.9613 16.4009 17.9619 16.1072V16.048C17.9632 16.0297 17.9673 16.012 17.9673 15.9934L18 0.91133ZM10.7009 7.63891L15.7976 3.96063L15.7747 14.5613L10.6863 14.5493L10.7009 7.63891ZM2.22051 2.30013L14.1955 2.32877L9.00079 6.07763C8.69569 6.29673 8.51281 6.66033 8.51186 7.04923L8.49567 14.544L2.19416 14.529L2.22051 2.30013ZM13.7412 16.8534L10.6765 19.0886L10.6813 16.8461L13.7412 16.8534Z" fill="#121212"/>
</svg>
