<svg width="24" height="24" viewBox="0 0 24 24" fill="none" xmlns="http://www.w3.org/2000/svg">
<path d="M18 21.7493H13.75V16.4993C13.75 15.5343 12.965 14.7493 12 14.7493C11.035 14.7493 10.25 15.5343 10.25 16.4993V21.7493H6C3.582 21.7493 2.25 20.4173 2.25 17.9993V11.6493C2.25 9.52631 2.83599 8.93328 3.79199 8.14028L9.91199 3.0093C11.121 1.9943 12.879 1.9943 14.088 3.0093L20.208 8.14028C21.164 8.93328 21.75 9.52731 21.75 11.6493V17.9993C21.75 20.4173 20.418 21.7493 18 21.7493ZM15.25 20.2493H18C19.577 20.2493 20.25 19.5763 20.25 17.9993V11.6493C20.25 10.1233 19.998 9.91433 19.251 9.29433L13.125 4.15834C12.473 3.61234 11.527 3.61234 10.875 4.15834L4.74902 9.29433C4.00202 9.91433 3.75 10.1233 3.75 11.6493V17.9993C3.75 19.5763 4.423 20.2493 6 20.2493H8.75V16.4993C8.75 14.7073 10.208 13.2493 12 13.2493C13.792 13.2493 15.25 14.7073 15.25 16.4993V20.2493Z" fill="white"/>
</svg>
