<svg width="14" height="13" viewBox="0 0 14 13" fill="none" xmlns="http://www.w3.org/2000/svg">
<g clip-path="url(#clip0_0_46)">
<path d="M8.45866 7.25246C8.45866 8.08001 7.80241 8.75709 7.00033 8.75709C6.19824 8.75709 5.54199 8.08001 5.54199 7.25246C5.54199 6.42491 6.19824 5.74783 7.00033 5.74783C7.80241 5.74783 8.45866 6.42491 8.45866 7.25246ZM13.9274 5.74783V9.5094C13.9274 11.3751 12.4545 12.8948 10.6462 12.8948H3.35449C1.54616 12.8948 0.0732422 11.3751 0.0732422 9.5094V5.74783C0.0732422 3.9498 1.43679 2.47527 3.15763 2.36994L4.07636 0.940619C4.41907 0.421522 4.98054 0.105469 5.59304 0.105469H8.40761C9.02011 0.105469 9.58158 0.421522 9.92429 0.940619L10.843 2.36994C12.5639 2.47527 13.9274 3.9498 13.9274 5.74783ZM9.91699 7.25246C9.91699 5.58984 8.61179 4.2432 7.00033 4.2432C5.38887 4.2432 4.08366 5.58984 4.08366 7.25246C4.08366 8.91508 5.38887 10.2617 7.00033 10.2617C8.61179 10.2617 9.91699 8.91508 9.91699 7.25246ZM12.1045 4.99551C12.1045 4.58174 11.7764 4.2432 11.3753 4.2432C10.9743 4.2432 10.6462 4.58174 10.6462 4.99551C10.6462 5.40929 10.9743 5.74783 11.3753 5.74783C11.7764 5.74783 12.1045 5.40929 12.1045 4.99551Z" fill="white"/>
</g>
<defs>
<clipPath id="clip0_0_46">
<rect width="14" height="13" fill="white"/>
</clipPath>
</defs>
</svg>
