<svg width="20" height="16" viewBox="0 0 20 16" fill="none" xmlns="http://www.w3.org/2000/svg">
<path d="M17.9488 3.97194C17.9588 4.14202 17.9588 4.32211 17.9588 4.5022C17.9588 9.84481 13.8367 15.9978 6.29307 15.9978C3.97193 15.9978 1.81088 15.3375 0 14.1869C0.330161 14.2269 0.650323 14.2369 0.990489 14.2369C2.91143 14.2369 4.67228 13.5966 6.08297 12.5161C4.28209 12.4761 2.77135 11.3155 2.2511 9.71473C2.50122 9.75475 2.76135 9.77476 3.02148 9.77476C3.39166 9.77476 3.76184 9.72474 4.10201 9.63469C2.22109 9.25451 0.810393 7.63373 0.810393 5.67277V5.62274C1.36066 5.92289 1.99098 6.11297 2.6613 6.13298C1.56077 5.40263 0.830407 4.17203 0.830407 2.77134C0.830407 2.02098 1.0305 1.33065 1.39068 0.730352C3.41167 3.18155 6.44314 4.78233 9.8448 4.96241C9.78477 4.66227 9.74476 4.35212 9.74476 4.04197C9.74476 1.81088 11.5756 0 13.8468 0C15.0273 0 16.0979 0.490228 16.8382 1.27061C17.7687 1.10053 18.6491 0.760374 19.4395 0.30015C19.1393 1.24061 18.489 2.03098 17.6386 2.52122C18.459 2.43118 19.2594 2.21107 19.9998 1.90092C19.4395 2.70131 18.7391 3.41166 17.9388 3.99194L17.9488 3.97194Z" fill="#F9F9F9"/>
</svg>
