<svg width="24" height="24" viewBox="0 0 24 24" fill="none" xmlns="http://www.w3.org/2000/svg">
<path d="M20.9395 8.28975C20.8695 6.84975 20.5395 5.56976 19.4895 4.51976C18.4395 3.46976 17.1595 3.13977 15.7195 3.06977C14.2295 2.98977 9.77953 2.98977 8.29953 3.06977C6.85953 3.13977 5.58954 3.46976 4.52954 4.51976C3.46954 5.56976 3.14953 6.84975 3.07953 8.28975C2.99953 9.77975 2.99953 14.2298 3.07953 15.7198C3.14953 17.1598 3.47954 18.4398 4.52954 19.4898C5.58954 20.5398 6.85953 20.8698 8.29953 20.9398C9.78953 21.0198 14.2395 21.0198 15.7195 20.9398C17.1595 20.8698 18.4395 20.5398 19.4895 19.4898C20.5395 18.4398 20.8695 17.1598 20.9395 15.7198C21.0195 14.2298 21.0195 9.77976 20.9395 8.29976V8.28975ZM11.9995 16.7498C9.37955 16.7498 7.24954 14.6198 7.24954 11.9998C7.24954 9.37976 9.37955 7.24976 11.9995 7.24976C14.6195 7.24976 16.7495 9.37976 16.7495 11.9998C16.7495 14.6198 14.6195 16.7498 11.9995 16.7498ZM17.5195 7.49976C16.9695 7.49976 16.5195 7.04976 16.5195 6.49976C16.5195 5.94976 16.9595 5.49976 17.5195 5.49976C18.0695 5.49976 18.5195 5.94976 18.5195 6.49976C18.5195 7.04976 18.0695 7.49976 17.5195 7.49976ZM15.2495 11.9998C15.2495 13.7898 13.7895 15.2498 11.9995 15.2498C10.2095 15.2498 8.74954 13.7898 8.74954 11.9998C8.74954 10.2098 10.2095 8.74976 11.9995 8.74976C13.7895 8.74976 15.2495 10.2098 15.2495 11.9998Z" fill="#F9F9F9"/>
</svg>
